<svg width="36" height="36" viewBox="0 0 36 36" fill="none" xmlns="http://www.w3.org/2000/svg">
<g clip-path="url(#clip0_94_202)">
<path d="M24.05 22.06H12.05C11.7848 22.06 11.5305 22.1654 11.3429 22.3529C11.1554 22.5404 11.05 22.7948 11.05 23.06C11.05 23.3252 11.1554 23.5796 11.3429 23.7671C11.5305 23.9546 11.7848 24.06 12.05 24.06H24.05C24.3153 24.06 24.5696 23.9546 24.7572 23.7671C24.9447 23.5796 25.05 23.3252 25.05 23.06C25.05 22.7948 24.9447 22.5404 24.7572 22.3529C24.5696 22.1654 24.3153 22.06 24.05 22.06Z" fill="#FD155C"/>
<path d="M18 2C14.8355 2 11.7421 2.93838 9.11088 4.69649C6.4797 6.45459 4.42894 8.95345 3.21793 11.8771C2.00693 14.8007 1.69008 18.0177 2.30744 21.1214C2.92481 24.2251 4.44866 27.0761 6.6863 29.3137C8.92394 31.5513 11.7749 33.0752 14.8786 33.6926C17.9823 34.3099 21.1993 33.9931 24.1229 32.7821C27.0466 31.5711 29.5454 29.5203 31.3035 26.8891C33.0616 24.2579 34 21.1645 34 18C34 13.7565 32.3143 9.68687 29.3137 6.68629C26.3131 3.68571 22.2435 2 18 2V2ZM18 32C15.2311 32 12.5243 31.1789 10.222 29.6406C7.91974 28.1022 6.12532 25.9157 5.06569 23.3576C4.00607 20.7994 3.72882 17.9845 4.26901 15.2687C4.80921 12.553 6.14258 10.0584 8.10051 8.1005C10.0584 6.14257 12.553 4.8092 15.2687 4.26901C17.9845 3.72881 20.7994 4.00606 23.3576 5.06569C25.9157 6.12531 28.1022 7.91973 29.6406 10.222C31.1789 12.5243 32 15.2311 32 18C32 21.713 30.525 25.274 27.8995 27.8995C25.274 30.525 21.713 32 18 32Z" fill="#FD155C"/>
<path d="M25.16 16.08C26.1541 16.08 26.96 15.2741 26.96 14.28C26.96 13.2859 26.1541 12.48 25.16 12.48C24.1659 12.48 23.36 13.2859 23.36 14.28C23.36 15.2741 24.1659 16.08 25.16 16.08Z" fill="#FD155C"/>
<path d="M11.16 16.08C12.1541 16.08 12.96 15.2741 12.96 14.28C12.96 13.2859 12.1541 12.48 11.16 12.48C10.1659 12.48 9.35999 13.2859 9.35999 14.28C9.35999 15.2741 10.1659 16.08 11.16 16.08Z" fill="#FD155C"/>
</g>
<defs>
<clipPath id="clip0_94_202">
<rect width="36" height="36" fill="white"/>
</clipPath>
</defs>
</svg>
