<svg width="36" height="36" viewBox="0 0 36 36" fill="none" xmlns="http://www.w3.org/2000/svg">
<g clip-path="url(#clip0_94_190)">
<path d="M18 2C14.8355 2 11.7421 2.93838 9.11088 4.69649C6.4797 6.45459 4.42894 8.95345 3.21793 11.8771C2.00693 14.8007 1.69008 18.0177 2.30744 21.1214C2.92481 24.2251 4.44866 27.0761 6.6863 29.3137C8.92394 31.5513 11.7749 33.0752 14.8786 33.6926C17.9823 34.3099 21.1993 33.9931 24.1229 32.7821C27.0466 31.5711 29.5454 29.5203 31.3035 26.8891C33.0616 24.2579 34 21.1645 34 18C34 13.7565 32.3143 9.68687 29.3137 6.68629C26.3131 3.68571 22.2435 2 18 2V2ZM18 32C15.2311 32 12.5243 31.1789 10.222 29.6406C7.91974 28.1022 6.12532 25.9157 5.06569 23.3576C4.00607 20.7994 3.72882 17.9845 4.26901 15.2687C4.80921 12.553 6.14258 10.0584 8.10051 8.1005C10.0584 6.14257 12.553 4.8092 15.2687 4.26901C17.9845 3.72881 20.7994 4.00606 23.3576 5.06569C25.9157 6.12531 28.1022 7.91973 29.6406 10.222C31.1789 12.5243 32 15.2311 32 18C32 21.713 30.525 25.274 27.8995 27.8995C25.274 30.525 21.713 32 18 32Z" fill="#FD155C"/>
<path d="M10.89 15.89C11.9946 15.89 12.89 14.9946 12.89 13.89C12.89 12.7854 11.9946 11.89 10.89 11.89C9.78545 11.89 8.89001 12.7854 8.89001 13.89C8.89001 14.9946 9.78545 15.89 10.89 15.89Z" fill="#FD155C"/>
<path d="M25.05 15.89C26.1546 15.89 27.05 14.9946 27.05 13.89C27.05 12.7854 26.1546 11.89 25.05 11.89C23.9455 11.89 23.05 12.7854 23.05 13.89C23.05 14.9946 23.9455 15.89 25.05 15.89Z" fill="#FD155C"/>
<path d="M18.13 28.21C19.9645 28.2124 21.7525 27.6328 23.2368 26.5547C24.721 25.4765 25.825 23.9554 26.39 22.21H9.87C10.4349 23.9554 11.539 25.4765 13.0232 26.5547C14.5075 27.6328 16.2955 28.2124 18.13 28.21V28.21Z" fill="#FD155C"/>
</g>
<defs>
<clipPath id="clip0_94_190">
<rect width="36" height="36" fill="white"/>
</clipPath>
</defs>
</svg>
