<svg width="36" height="36" viewBox="0 0 36 36" fill="none" xmlns="http://www.w3.org/2000/svg">
<g clip-path="url(#clip0_94_196)">
<path d="M18 2C14.8355 2 11.7421 2.93838 9.11088 4.69649C6.4797 6.45459 4.42894 8.95345 3.21793 11.8771C2.00693 14.8007 1.69008 18.0177 2.30744 21.1214C2.92481 24.2251 4.44866 27.0761 6.6863 29.3137C8.92394 31.5513 11.7749 33.0752 14.8786 33.6926C17.9823 34.3099 21.1993 33.9931 24.1229 32.7821C27.0466 31.5711 29.5454 29.5203 31.3035 26.8891C33.0616 24.2579 34 21.1645 34 18C34 13.7565 32.3143 9.68687 29.3137 6.68629C26.3131 3.68571 22.2435 2 18 2V2ZM18 32C15.2311 32 12.5243 31.1789 10.222 29.6406C7.91974 28.1022 6.12532 25.9157 5.06569 23.3576C4.00607 20.7994 3.72882 17.9845 4.26901 15.2687C4.80921 12.553 6.14258 10.0584 8.10051 8.1005C10.0584 6.14257 12.553 4.8092 15.2687 4.26901C17.9845 3.72881 20.7994 4.00606 23.3576 5.06569C25.9157 6.12531 28.1022 7.91973 29.6406 10.222C31.1789 12.5243 32 15.2311 32 18C32 21.713 30.525 25.274 27.8995 27.8995C25.274 30.525 21.713 32 18 32Z" fill="#FD155C"/>
<path d="M25.16 16.08C26.1541 16.08 26.96 15.2741 26.96 14.28C26.96 13.2859 26.1541 12.48 25.16 12.48C24.1659 12.48 23.36 13.2859 23.36 14.28C23.36 15.2741 24.1659 16.08 25.16 16.08Z" fill="#FD155C"/>
<path d="M11.41 16.08C12.4041 16.08 13.21 15.2741 13.21 14.28C13.21 13.2859 12.4041 12.48 11.41 12.48C10.4159 12.48 9.60999 13.2859 9.60999 14.28C9.60999 15.2741 10.4159 16.08 11.41 16.08Z" fill="#FD155C"/>
<path d="M18.16 20C16.7253 20.0002 15.3116 20.3434 14.0365 21.001C12.7614 21.6585 11.662 22.6113 10.83 23.78C10.6761 23.9962 10.6145 24.2646 10.6586 24.5262C10.7026 24.7878 10.8488 25.0212 11.065 25.175C11.2811 25.3288 11.5495 25.3905 11.8111 25.3464C12.0728 25.3023 12.3061 25.1562 12.46 24.94C13.0994 24.0419 13.9419 23.3075 14.9188 22.7967C15.8958 22.2859 16.9796 22.013 18.0819 22.0003C19.1843 21.9877 20.2741 22.2355 21.2625 22.7238C22.251 23.212 23.1101 23.9268 23.77 24.81C23.9291 25.0222 24.166 25.1624 24.4285 25.1999C24.6911 25.2375 24.9578 25.1691 25.17 25.01C25.3821 24.8509 25.5224 24.614 25.5599 24.3514C25.5974 24.0889 25.5291 23.8222 25.37 23.61C24.5317 22.489 23.4435 21.5791 22.1919 20.9524C20.9402 20.3257 19.5597 19.9996 18.16 20V20Z" fill="#FD155C"/>
</g>
<defs>
<clipPath id="clip0_94_196">
<rect width="36" height="36" fill="white"/>
</clipPath>
</defs>
</svg>
