<svg width="250" height="156" viewBox="0 0 250 156" fill="none" xmlns="http://www.w3.org/2000/svg">
<g filter="url(#filter0_di_24_4)">
<line x1="2.84556" y1="55.4597" x2="2.84556" y2="3.75314" stroke="black" stroke-width="4.30888"/>
<line x1="5" y1="3.03498" x2="57.2342" y2="3.03498" stroke="black" stroke-width="4.30888"/>
</g>
<g filter="url(#filter1_di_24_4)">
<line x1="241.798" y1="89.9307" x2="241.798" y2="141.637" stroke="black" stroke-width="4.30888"/>
<line x1="239.643" y1="142.355" x2="187.409" y2="142.355" stroke="black" stroke-width="4.30888"/>
</g>
<g filter="url(#filter2_di_24_4)">
<path d="M32.2321 57.2127C30.049 57.2127 28.1339 57.1553 26.487 57.0404C24.8783 56.9255 23.2697 56.7914 21.661 56.6382V16.6518C23.4612 16.4603 25.223 16.3263 26.9466 16.2496C28.6701 16.1347 30.6426 16.0773 32.8641 16.0773C36.3112 16.0773 39.2795 16.6135 41.7691 17.6859C44.297 18.7584 46.3653 20.233 47.9739 22.1097C49.6209 23.9865 50.8273 26.1696 51.5934 28.6592C52.3977 31.1105 52.7998 33.7533 52.7998 36.5876C52.7998 39.3835 52.3977 42.0263 51.5934 44.5159C50.789 47.0055 49.5442 49.2078 47.859 51.1228C46.212 52.9996 44.0863 54.4933 41.4819 55.6041C38.9157 56.6765 35.8324 57.2127 32.2321 57.2127ZM32.4045 52.4442C35.8516 52.4442 38.6667 51.774 40.8499 50.4334C43.0331 49.0929 44.6417 47.2353 45.6758 44.8606C46.71 42.4476 47.227 39.69 47.227 36.5876C47.227 33.8299 46.71 31.2445 45.6758 28.8316C44.6417 26.4186 43.0522 24.4844 40.9073 23.029C38.7625 21.5352 36.0239 20.7883 32.6917 20.7883C31.581 20.7883 30.566 20.8266 29.6468 20.9032C28.7276 20.9415 27.8849 20.999 27.1189 21.0756V52.157C27.9232 52.2719 28.7659 52.3485 29.6468 52.3868C30.5277 52.4251 31.447 52.4442 32.4045 52.4442ZM109.741 57.3276L105.26 45.8373H86.6452L82.164 57.2127L77.5104 55.3168L93.2521 16.5369H99.2271L114.739 55.3168L109.741 57.3276ZM88.3687 41.2411H103.479L95.9524 21.9374L88.3687 41.2411ZM147.222 56.7531V21.3628H134.87V16.5369H165.032V21.3628H152.68V56.7531H147.222ZM217.391 57.3276L212.91 45.8373H194.295L189.814 57.2127L185.161 55.3168L200.902 16.5369H206.877L222.389 55.3168L217.391 57.3276ZM196.019 41.2411H211.129L203.603 21.9374L196.019 41.2411ZM21.661 124.753V84.5369H28.8999L46.6525 117.974V84.5369H51.8232V124.753H44.6992L26.8317 91.546V124.753H21.661ZM79.979 124.753V84.5369H104.109V89.2479H85.4369V101.485H101.523V106.081H85.4369V120.042H104.109V124.753H79.979ZM136.264 124.753L125.348 85.8583L130.748 84.1347L139.826 118.95L148.386 88.7309H155.223L163.726 118.95L172.746 84.3071L177.801 85.8583L166.943 124.753H160.164L151.661 94.5335L143.043 124.753H136.264ZM211.1 125.443C208.304 125.443 205.757 125.079 203.459 124.351C201.161 123.585 199.227 122.589 197.656 121.363L200.414 116.767C201.793 117.916 203.344 118.855 205.068 119.582C206.791 120.31 208.802 120.674 211.1 120.674C213.858 120.674 216.041 120.1 217.649 118.95C219.258 117.801 220.062 116.25 220.062 114.297C220.062 113.186 219.833 112.209 219.373 111.367C218.913 110.486 218.013 109.643 216.673 108.839C215.371 107.996 213.436 107.096 210.87 106.139C208.112 105.066 205.91 103.994 204.263 102.921C202.616 101.811 201.429 100.566 200.701 99.1871C200.012 97.77 199.667 96.1039 199.667 94.1888C199.667 92.2737 200.184 90.5502 201.218 89.0181C202.291 87.4478 203.842 86.203 205.872 85.2838C207.94 84.3263 210.43 83.8475 213.341 83.8475C215.715 83.8475 217.841 84.0964 219.718 84.5944C221.633 85.054 223.49 85.7242 225.291 86.6052L223.28 91.2588C221.978 90.4927 220.445 89.8608 218.684 89.3628C216.96 88.8266 215.141 88.5585 213.226 88.5585C210.698 88.5585 208.706 89.0564 207.251 90.0523C205.795 91.0481 205.068 92.3312 205.068 93.9015C205.068 94.8974 205.278 95.7783 205.7 96.5443C206.121 97.3103 206.944 98.0572 208.17 98.7849C209.434 99.5127 211.311 100.336 213.8 101.255C216.788 102.366 219.143 103.534 220.867 104.76C222.629 105.986 223.873 107.326 224.601 108.782C225.329 110.199 225.693 111.826 225.693 113.665C225.693 116.155 225.061 118.28 223.797 120.042C222.571 121.804 220.848 123.144 218.626 124.064C216.443 124.983 213.934 125.443 211.1 125.443Z" fill="black"/>
</g>
<defs>
<filter id="filter0_di_24_4" x="0.691132" y="0.880554" width="57.9793" height="54.5791" filterUnits="userSpaceOnUse" color-interpolation-filters="sRGB">
<feFlood flood-opacity="0" result="BackgroundImageFix"/>
<feColorMatrix in="SourceAlpha" type="matrix" values="0 0 0 0 0 0 0 0 0 0 0 0 0 0 0 0 0 0 127 0" result="hardAlpha"/>
<feOffset dx="1.43629"/>
<feComposite in2="hardAlpha" operator="out"/>
<feColorMatrix type="matrix" values="0 0 0 0 0.992157 0 0 0 0 0.0823529 0 0 0 0 0.360784 0 0 0 1 0"/>
<feBlend mode="normal" in2="BackgroundImageFix" result="effect1_dropShadow_24_4"/>
<feBlend mode="normal" in="SourceGraphic" in2="effect1_dropShadow_24_4" result="shape"/>
<feColorMatrix in="SourceAlpha" type="matrix" values="0 0 0 0 0 0 0 0 0 0 0 0 0 0 0 0 0 0 127 0" result="hardAlpha"/>
<feOffset dx="1.43629" dy="-1.43629"/>
<feComposite in2="hardAlpha" operator="arithmetic" k2="-1" k3="1"/>
<feColorMatrix type="matrix" values="0 0 0 0 0 0 0 0 0 0.980392 0 0 0 0 0.996078 0 0 0 1 0"/>
<feBlend mode="normal" in2="shape" result="effect2_innerShadow_24_4"/>
</filter>
<filter id="filter1_di_24_4" x="187.409" y="89.9307" width="57.9793" height="54.5791" filterUnits="userSpaceOnUse" color-interpolation-filters="sRGB">
<feFlood flood-opacity="0" result="BackgroundImageFix"/>
<feColorMatrix in="SourceAlpha" type="matrix" values="0 0 0 0 0 0 0 0 0 0 0 0 0 0 0 0 0 0 127 0" result="hardAlpha"/>
<feOffset dx="1.43629"/>
<feComposite in2="hardAlpha" operator="out"/>
<feColorMatrix type="matrix" values="0 0 0 0 0.992157 0 0 0 0 0.0823529 0 0 0 0 0.360784 0 0 0 1 0"/>
<feBlend mode="normal" in2="BackgroundImageFix" result="effect1_dropShadow_24_4"/>
<feBlend mode="normal" in="SourceGraphic" in2="effect1_dropShadow_24_4" result="shape"/>
<feColorMatrix in="SourceAlpha" type="matrix" values="0 0 0 0 0 0 0 0 0 0 0 0 0 0 0 0 0 0 127 0" result="hardAlpha"/>
<feOffset dx="1.43629" dy="-1.43629"/>
<feComposite in2="hardAlpha" operator="arithmetic" k2="-1" k3="1"/>
<feColorMatrix type="matrix" values="0 0 0 0 0 0 0 0 0 0.980392 0 0 0 0 0.996078 0 0 0 1 0"/>
<feBlend mode="normal" in2="shape" result="effect2_innerShadow_24_4"/>
</filter>
<filter id="filter2_di_24_4" x="20.6528" y="16.0773" width="205.04" height="110.802" filterUnits="userSpaceOnUse" color-interpolation-filters="sRGB">
<feFlood flood-opacity="0" result="BackgroundImageFix"/>
<feColorMatrix in="SourceAlpha" type="matrix" values="0 0 0 0 0 0 0 0 0 0 0 0 0 0 0 0 0 0 127 0" result="hardAlpha"/>
<feOffset dx="-1.00826" dy="1.43629"/>
<feComposite in2="hardAlpha" operator="out"/>
<feColorMatrix type="matrix" values="0 0 0 0 0.992157 0 0 0 0 0.0823529 0 0 0 0 0.360784 0 0 0 1 0"/>
<feBlend mode="normal" in2="BackgroundImageFix" result="effect1_dropShadow_24_4"/>
<feBlend mode="normal" in="SourceGraphic" in2="effect1_dropShadow_24_4" result="shape"/>
<feColorMatrix in="SourceAlpha" type="matrix" values="0 0 0 0 0 0 0 0 0 0 0 0 0 0 0 0 0 0 127 0" result="hardAlpha"/>
<feOffset dx="-1.43629" dy="0.718147"/>
<feComposite in2="hardAlpha" operator="arithmetic" k2="-1" k3="1"/>
<feColorMatrix type="matrix" values="0 0 0 0 0 0 0 0 0 0.980392 0 0 0 0 0.996078 0 0 0 1 0"/>
<feBlend mode="normal" in2="shape" result="effect2_innerShadow_24_4"/>
</filter>
</defs>
</svg>
